Coordinates
version=1
nRows=26
nColumns=24
inDegrees=yes

Units are S.I. units (second, meters, Newtons, ...)
Angles are in degrees.

endheader
time	pelvis_tilt	pelvis_list	pelvis_rotation	pelvis_tx	pelvis_ty	pelvis_tz	hip_flexion_r	hip_adduction_r	hip_rotation_r	knee_angle_r	ankle_angle_r	subtalar_angle_r	mtp_angle_r	hip_flexion_l	hip_adduction_l	hip_rotation_l	knee_angle_l	ankle_angle_l	subtalar_angle_l	mtp_angle_l	lumbar_extension	lumbar_bending	lumbar_rotation
      0.67950000	     -0.69707662	     -4.37236047	     -6.51178654	     -0.53877532	      1.01582619	      0.34715598	     11.37877530	      9.52027543	     -0.16418986	    -13.25594663	     -3.93811604	    -18.56510178	     -8.04596720	     22.13040946	    -12.55076073	    -11.10571738	    -70.86144025	      5.74377196	    -10.84613561	     -0.62774827	    -12.50543965	      6.08603715	     10.37790109
      0.68366667	     -0.72093867	     -4.29457231	     -6.53171869	     -0.53340736	      1.01680243	      0.34738965	     10.88963168	      9.42982867	     -0.05395403	    -12.90741326	     -3.90071966	    -18.57086543	     -8.06259508	     22.73891189	    -12.43074001	    -11.02517709	    -70.24392342	      5.89019023	    -10.83268566	     -0.67490017	    -12.48941249	      5.97971932	     10.53971029
      0.68783333	     -0.65041307	     -4.20828292	     -6.59873606	     -0.52800655	      1.01794371	      0.34774647	     10.28572111	      9.33164743	      0.11372540	    -12.54691950	     -3.80154448	    -18.55210523	     -8.12355012	     23.17871643	    -12.32259083	    -11.05027912	    -69.50561094	      5.95024489	    -10.92515577	     -0.84234059	    -12.57746131	      5.83221868	     10.78406816
      0.69200000	     -0.68695102	     -4.15996106	     -6.64678191	     -0.52257841	      1.01880172	      0.34809974	      9.79883828	      9.28128175	      0.23283763	    -12.19205541	     -3.72225163	    -18.53542282	     -8.13462148	     23.73397753	    -12.26855171	    -11.05027829	    -68.74577998	      6.07540142	    -10.93632110	     -0.87125445	    -12.52236905	      5.74875455	     10.82588593
      0.69616667	     -0.54055761	     -4.02445692	     -6.73564207	     -0.51718382	      1.02004947	      0.34849389	      9.11780943	      9.12100299	      0.42881038	    -11.82799871	     -3.64290162	    -18.52023629	     -8.20368439	     24.00784288	    -12.10345728	    -11.16325342	    -67.80236837	      6.07401384	    -11.09246749	     -1.03275768	    -12.69974491	      5.52939083	     11.02263755
      0.70033333	     -0.57307663	     -3.95119529	     -6.78035489	     -0.51174155	      1.02087225	      0.34882136	      8.63027257	      9.03673722	      0.54356473	    -11.46929214	     -3.62039939	    -18.49504882	     -8.22799312	     24.49453267	    -12.01246174	    -11.19843823	    -66.87139079	      6.16622785	    -11.09797442	     -1.08435687	    -12.65409475	      5.41983596	     11.09589475
      0.70450000	     -0.40216571	     -3.82694528	     -6.89309218	     -0.50632574	      1.02206260	      0.34929978	      7.92208602	      8.88753990	      0.75286220	    -11.11243243	     -3.48304346	    -18.46386643	     -8.29980605	     24.67111950	    -11.87907686	    -11.38770339	    -65.78258288	      6.13326680	    -11.30571610	     -1.23739026	    -12.85291993	      5.18768006	     11.28972290
      0.70866667	     -0.28395251	     -3.72441939	     -6.97864907	     -0.50085858	      1.02310756	      0.34973304	      7.26670623	      8.75856777	      0.90938087	    -10.74516214	     -3.41928620	    -18.45462526	     -8.37754817	     24.88779778	    -11.76595587	    -11.55092067	    -64.64485198	      6.16075595	    -11.37232633	     -1.38962652	    -12.97634471	      5.00328740	     11.43880701
      0.71283333	     -0.14570740	     -3.64079027	     -7.08538455	     -0.49542104	      1.02412744	      0.35020900	      6.58923144	      8.64746232	      1.09116651	    -10.37559624	     -3.36084112	    -18.37859922	     -8.47414449	     25.04978471	    -11.68391669	    -11.75194462	    -63.44226185	      6.14303085	    -11.45763336	     -1.57107147	    -13.13596081	      4.83403093	     11.59634805
      0.71700000	     -0.19042998	     -3.57427903	     -7.11585893	     -0.48995579	      1.02473568	      0.35050269	      6.12702990	      8.56280612	      1.17043529	    -10.03833352	     -3.32277262	    -18.39641734	     -8.50573335	     25.43519447	    -11.59124058	    -11.84085078	    -62.23194173	      6.16741954	    -11.49462357	     -1.62737823	    -13.06928752	      4.73190659	     11.66880421
      0.72116667	      0.08844809	     -3.46323272	     -7.26985659	     -0.48450829	      1.02593863	      0.35109289	      5.30178391	      8.40647223	      1.39928058	     -9.67898779	     -3.19133019	    -18.29724863	     -8.61747776	     25.33905589	    -11.49066083	    -12.17087111	    -60.83866766	      6.10177117	    -11.61076839	     -1.82544479	    -13.39342445	      4.48472278	     11.88439408
      0.72533333	      0.02780251	     -3.40885888	     -7.29586627	     -0.47903824	      1.02639624	      0.35137559	      4.86713084	      8.33463838	      1.46925058	     -9.36273685	     -3.14923052	    -18.32968305	     -8.64848676	     25.68651232	    -11.40842423	    -12.28234474	    -59.50677624	      6.10427807	    -11.63795935	     -1.87721570	    -13.30965111	      4.39657164	     11.94340546
      0.72950000	      0.26808032	     -3.28586639	     -7.46384074	     -0.47360560	      1.02741749	      0.35196820	      4.10921886	      8.16434493	      1.69894507	     -9.04934281	     -2.97628571	    -18.24338332	     -8.73849951	     25.57209123	    -11.29503178	    -12.65486769	    -57.98484833	      6.02465037	    -11.80925543	     -2.02839416	    -13.58964780	      4.13631852	     12.12708330
      0.73366667	      0.43141540	     -3.23282005	     -7.57020916	     -0.46814423	      1.02819725	      0.35245352	      3.42398889	      8.07015994	      1.85525451	     -8.71770346	     -2.90574775	    -18.21282172	     -8.84855135	     25.55068666	    -11.24109563	    -12.94381995	    -56.45752414	      5.96591102	    -11.76242959	     -2.19550143	    -13.77777463	      3.98403011	     12.30206848
      0.73783333	      0.49005407	     -3.16717137	     -7.66202335	     -0.46268830	      1.02871711	      0.35285659	      2.87715371	      7.97052418	      1.99521043	     -8.43570098	     -2.78504142	    -18.18460421	     -8.93345728	     25.63351963	    -11.15999881	    -13.20491888	    -54.89054102	      5.93056853	    -11.79141790	     -2.31738702	    -13.84386137	      3.84123741	     12.40432852
      0.74200000	      0.58841142	     -3.11926703	     -7.75529883	     -0.45722072	      1.02924766	      0.35327113	      2.28645576	      7.88177449	      2.12440899	     -8.15439666	     -2.66535023	    -18.13865660	     -9.02092936	     25.63553075	    -11.09615311	    -13.49154101	    -53.25692442	      5.88623911	    -11.74351615	     -2.43403686	    -13.95628319	      3.70843055	     12.53605717
      0.74616667	      0.71280732	     -3.10179732	     -7.85424098	     -0.45177932	      1.02974366	      0.35369784	      1.67301450	      7.82123256	      2.25385975	     -7.88752203	     -2.53775265	    -18.09402328	     -9.12436891	     25.58169509	    -11.06695999	    -13.80406038	    -51.57219301	      5.79345488	    -11.64524432	     -2.55658926	    -14.10473701	      3.60726357	     12.67549515
      0.75033333	      0.77379294	     -3.09141364	     -7.93656263	     -0.44632063	      1.03005850	      0.35405457	      1.13792920	      7.77194683	      2.36533834	     -7.64260119	     -2.40729626	    -18.05982843	     -9.23840112	     25.57913764	    -11.03170093	    -14.09153503	    -49.84705293	      5.74153878	    -11.51323600	     -2.67228838	    -14.17585252	      3.52778958	     12.80596969
      0.75450000	      0.76166394	     -3.08687094	     -8.00026460	     -0.44083761	      1.03016499	      0.35434337	      0.69165292	      7.73488132	      2.45581488	     -7.42102049	     -2.25288427	    -18.01215870	     -9.30788769	     25.64206673	    -10.99061402	    -14.35530426	    -48.08591061	      5.71625663	    -11.39449602	     -2.73201233	    -14.16947511	      3.47482171	     12.84648405
      0.75866667	      0.84549003	     -3.10193388	     -8.06797690	     -0.43538041	      1.03037736	      0.35463450	      0.13987898	      7.70258356	      2.54975100	     -7.19597181	     -2.09134469	    -17.94927526	     -9.39106769	     25.55957768	    -10.95936890	    -14.65642848	    -46.24999732	      5.64380653	    -11.18849942	     -2.78650762	    -14.28300100	      3.42828474	     12.94761027
      0.76283333	      0.72116484	     -3.20277975	     -8.04199805	     -0.42993893	      1.03007906	      0.35469557	     -0.16970228	      7.78904399	      2.52637399	     -7.02068962	     -1.96347459	    -17.95879475	     -9.41447179	     25.75483537	    -10.98922340	    -14.79022869	    -44.46717853	      5.56818591	    -10.90436802	     -2.79766616	    -14.16123489	      3.54645334	     12.98177929
      0.76700000	      0.81164951	     -3.19979781	     -8.15722514	     -0.42441646	      1.03020548	      0.35503196	     -0.71329766	      7.72959722	      2.65601180	     -6.83729123	     -1.72832206	    -17.81200285	     -9.48398115	     25.57284750	    -10.93885136	    -15.17721945	    -42.49622321	      5.52282698	    -10.68247981	     -2.81328453	    -14.26313325	      3.45964371	     13.02947402
      0.77116667	      0.86487490	     -3.28989884	     -8.18802287	     -0.41894661	      1.03013028	      0.35517814	     -1.21765936	      7.77399812	      2.69548300	     -6.66108341	     -1.54709426	    -17.76546920	     -9.56798331	     25.46138174	    -10.94903057	    -15.45384181	    -40.54554705	      5.40823954	    -10.33841243	     -2.80483848	    -14.35089161	      3.51825415	     13.13030539
      0.77533333	      0.79347062	     -3.39519076	     -8.19501590	     -0.41344139	      1.02975626	      0.35523038	     -1.57552401	      7.84918142	      2.70536126	     -6.51889806	     -1.34127520	    -17.69826056	     -9.63749163	     25.48266800	    -10.96283012	    -15.67524596	    -38.58688903	      5.32369285	     -9.98366726	     -2.77452319	    -14.28841414	      3.62288031	     13.14419160
      0.77950000	      0.68804384	     -3.52165034	     -8.16452075	     -0.40790276	      1.02923486	      0.35516885	     -1.90007001	      7.94836824	      2.68457514	     -6.37492221	     -1.15246673	    -17.63471956	     -9.68087094	     25.53242802	    -10.97042038	    -15.84256718	    -36.61112100	      5.28256319	     -9.57453073	     -2.73858461	    -14.18564752	      3.76622612	     13.13739209
      0.78366667	      0.52880978	     -3.70968570	     -8.09899196	     -0.40242316	      1.02850946	      0.35500449	     -2.15005883	      8.12270940	      2.61008818	     -6.27472618	     -0.95663149	    -17.62812758	     -9.69694374	     25.65463720	    -11.02802900	    -15.95486431	    -34.64830372	      5.14393813	     -9.13911594	     -2.71813829	    -14.04044203	      4.00967990	     13.13528241
